<svg width="106" height="106" viewBox="0 0 106 106" fill="none" xmlns="http://www.w3.org/2000/svg">
<path d="M50.7092 1.73845C51.6355 -0.177547 54.3646 -0.177546 55.2909 1.73845V1.73845C56.1297 3.47356 58.5181 3.68251 59.6455 2.11943V2.11943C60.8904 0.393388 63.578 0.867291 64.1576 2.91503V2.91503C64.6824 4.76945 66.9981 5.38995 68.3798 4.04638V4.04638C69.9056 2.56275 72.4701 3.49615 72.6852 5.61341V5.61341C72.88 7.53079 75.0528 8.54399 76.6469 7.46077V7.46077C78.4071 6.26462 80.7705 7.62917 80.6147 9.75162V9.75162C80.4737 11.6737 82.4375 13.0488 84.1954 12.2588V12.2588C86.1366 11.3865 88.2272 13.1407 87.7052 15.2039V15.2039C87.2325 17.0723 88.9277 18.7675 90.7961 18.2948V18.2948C92.8593 17.7728 94.6135 19.8634 93.7412 21.8046V21.8046C92.9512 23.5625 94.3263 25.5264 96.2484 25.3853V25.3853C98.3709 25.2295 99.7354 27.5929 98.5392 29.3531V29.3531C97.456 30.9472 98.4692 33.12 100.387 33.3148V33.3148C102.504 33.5299 103.437 36.0945 101.954 37.6202V37.6202C100.61 39.0019 101.231 41.3177 103.085 41.8425V41.8425C105.133 42.422 105.607 45.1096 103.881 46.3546V46.3546C102.318 47.482 102.526 49.8703 104.262 50.7091V50.7091C106.178 51.6354 106.178 54.3645 104.262 55.2908V55.2908C102.526 56.1297 102.318 58.518 103.881 59.6454V59.6454C105.607 60.8903 105.133 63.578 103.085 64.1575V64.1575C101.231 64.6823 100.61 66.9981 101.954 68.3798V68.3798C103.437 69.9055 102.504 72.47 100.387 72.6852V72.6852C98.4692 72.88 97.456 75.0528 98.5392 76.6468V76.6468C99.7354 78.407 98.3709 80.7705 96.2484 80.6147V80.6147C94.3263 80.4736 92.9512 82.4375 93.7412 84.1954V84.1954C94.6135 86.1365 92.8593 88.2271 90.7961 87.7051V87.7051C88.9277 87.2324 87.2325 88.9277 87.7052 90.7961V90.7961C88.2272 92.8592 86.1366 94.6134 84.1954 93.7411V93.7411C82.4375 92.9511 80.4737 94.3263 80.6147 96.2483V96.2483C80.7705 98.3708 78.4071 99.7353 76.6469 98.5392V98.5392C75.0528 97.456 72.88 98.4692 72.6852 100.387V100.387C72.4701 102.504 69.9056 103.437 68.3798 101.954V101.954C66.9981 100.61 64.6824 101.231 64.1576 103.085V103.085C63.578 105.133 60.8904 105.607 59.6455 103.881V103.881C58.5181 102.317 56.1297 102.526 55.2909 104.262V104.262C54.3646 106.178 51.6355 106.178 50.7092 104.262V104.262C49.8703 102.526 47.482 102.317 46.3546 103.881V103.881C45.1097 105.607 42.422 105.133 41.8425 103.085V103.085C41.3177 101.231 39.002 100.61 37.6203 101.954V101.954C36.0945 103.437 33.53 102.504 33.3149 100.387V100.387C33.12 98.4692 30.9472 97.456 29.3532 98.5392V98.5392C27.593 99.7353 25.2295 98.3708 25.3853 96.2483V96.2483C25.5264 94.3263 23.5626 92.9511 21.8047 93.7411V93.7411C19.8635 94.6134 17.7729 92.8592 18.2949 90.7961V90.7961C18.7676 88.9277 17.0723 87.2324 15.204 87.7051V87.7051C13.1408 88.2271 11.3866 86.1365 12.2589 84.1954V84.1954C13.0489 82.4374 11.6738 80.4736 9.75168 80.6147V80.6147C7.62923 80.7705 6.26468 78.407 7.46083 76.6468V76.6468C8.54406 75.0528 7.53086 72.88 5.61348 72.6852V72.6852C3.49621 72.47 2.56281 69.9055 4.04644 68.3798V68.3798C5.39001 66.9981 4.76951 64.6823 2.91509 64.1575V64.1575C0.867352 63.578 0.39345 60.8903 2.11949 59.6454V59.6454C3.68258 58.518 3.47363 56.1297 1.73851 55.2908V55.2908C-0.177486 54.3645 -0.177485 51.6354 1.73851 50.7091V50.7091C3.47363 49.8703 3.68258 47.482 2.11949 46.3546V46.3546C0.393449 45.1096 0.867352 42.422 2.91509 41.8425V41.8425C4.76951 41.3177 5.39001 39.0019 4.04644 37.6202V37.6202C2.56281 36.0944 3.49621 33.5299 5.61348 33.3148V33.3148C7.53086 33.12 8.54406 30.9472 7.46083 29.3531V29.3531C6.26468 27.5929 7.62923 25.2295 9.75168 25.3853V25.3853C11.6738 25.5264 13.0489 23.5625 12.2589 21.8046V21.8046C11.3866 19.8634 13.1408 17.7728 15.204 18.2948V18.2948C17.0723 18.7675 18.7676 17.0723 18.2949 15.2039V15.2039C17.7729 13.1407 19.8635 11.3865 21.8047 12.2588V12.2588C23.5626 13.0488 25.5264 11.6737 25.3853 9.75162V9.75162C25.2295 7.62917 27.593 6.26462 29.3532 7.46077V7.46077C30.9472 8.54399 33.12 7.5308 33.3149 5.61342V5.61342C33.53 3.49615 36.0945 2.56275 37.6203 4.04638V4.04638C39.002 5.38995 41.3177 4.76945 41.8425 2.91503V2.91503C42.422 0.867291 45.1097 0.393389 46.3546 2.11943V2.11943C47.482 3.68251 49.8703 3.47356 50.7092 1.73845V1.73845Z" fill="#b88a47"/>
</svg>
